<?xml version="1.0" standalone="no"?>
<!DOCTYPE svg PUBLIC "-//W3C//DTD SVG 20010904//EN"
 "http://www.w3.org/TR/2001/REC-SVG-20010904/DTD/svg10.dtd">
<svg version="1.0" xmlns="http://www.w3.org/2000/svg"
 width="2692.000000pt" height="944.000000pt" viewBox="0 0 2692.000000 944.000000"
 preserveAspectRatio="xMidYMid meet">

<g transform="translate(0.000000,944.000000) scale(0.100000,-0.100000)"
fill="#000000" stroke="none">
<path d="M13300 8784 c-102 -13 -188 -23 -192 -24 -5 0 -8 -13 -8 -28 0 -25 7
-32 60 -55 55 -23 60 -28 60 -56 0 -17 -48 -245 -106 -508 -116 -523 -120
-558 -73 -609 35 -39 96 -64 157 -64 64 0 193 26 241 48 31 15 36 23 39 55 4
43 0 44 -73 22 -99 -30 -142 4 -131 105 4 33 61 301 126 596 66 294 120 537
120 540 0 6 -14 5 -220 -22z"/>
<path d="M10316 8684 c-14 -37 -6 -51 38 -68 24 -9 51 -24 59 -34 12 -13 25
-131 61 -563 25 -300 46 -554 46 -563 0 -13 13 -16 83 -16 l83 0 76 113 c43
63 145 245 234 417 86 168 160 309 164 313 4 5 10 -20 14 -55 3 -35 22 -217
41 -405 19 -188 35 -352 35 -363 0 -18 6 -20 83 -20 l82 0 86 133 c48 72 187
319 309 547 122 228 232 426 244 439 11 12 46 36 77 52 54 27 69 43 69 75 0
12 -35 14 -209 14 -181 0 -210 -2 -215 -16 -14 -38 -6 -49 54 -73 34 -14 63
-28 66 -32 5 -9 -407 -792 -413 -785 -4 4 -93 843 -93 879 0 15 -10 17 -72 17
l-73 0 -81 -138 c-45 -75 -150 -270 -233 -433 -84 -163 -157 -304 -164 -313
-10 -14 -19 57 -45 380 -18 218 -29 400 -25 404 4 4 36 15 71 25 61 18 82 36
82 69 0 14 -31 16 -264 16 -231 0 -265 -2 -270 -16z"/>
<path d="M5540 8660 c-58 -5 -1117 -84 -2355 -175 -1372 -101 -2278 -171
-2322 -181 -195 -42 -320 -164 -371 -361 -16 -64 -17 -230 -17 -2623 l0 -2555
23 -85 c29 -109 104 -261 184 -376 126 -180 1135 -1480 1196 -1541 104 -103
219 -149 402 -159 77 -4 823 38 2759 155 1460 89 2682 166 2715 171 82 13 161
37 220 67 67 34 152 121 182 187 57 126 54 -57 52 3063 l-3 2868 -21 40 c-26
48 -102 121 -204 197 -156 114 -1628 1146 -1686 1181 -158 95 -276 127 -494
132 -85 2 -202 0 -260 -5z m440 -480 c41 -12 111 -40 155 -63 63 -33 585 -403
903 -639 59 -44 83 -81 64 -100 -8 -8 -655 -50 -1969 -129 -1077 -65 -2147
-129 -2378 -143 -479 -30 -554 -31 -646 -12 -127 27 -141 36 -697 476 -235
187 -258 211 -231 259 33 59 -66 50 2264 221 2356 173 2381 175 2535 130z
m1558 -1365 c78 -33 117 -95 132 -208 13 -98 13 -4692 0 -4813 -11 -104 -27
-148 -72 -199 -43 -50 -96 -74 -186 -86 -91 -12 -4882 -289 -4998 -289 -157 0
-248 44 -299 145 l-30 59 0 2465 0 2466 26 50 c34 67 87 103 170 116 55 9
5018 305 5167 308 29 0 69 -6 90 -14z"/>
<path d="M3180 6037 l0 -103 198 -63 c217 -70 255 -86 292 -126 l25 -27 3
-1591 c2 -1575 2 -1592 -18 -1625 -30 -49 -67 -66 -292 -139 l-208 -67 0 -103
0 -104 1098 4 c973 3 1110 5 1212 21 752 112 1254 446 1536 1022 92 190 154
406 186 654 16 124 15 518 -1 645 -60 474 -244 862 -544 1151 -286 276 -687
455 -1187 530 -102 16 -235 18 -1207 21 l-1093 4 0 -104z m2083 -305 c567
-135 919 -625 1007 -1402 16 -140 13 -522 -5 -673 -72 -609 -312 -983 -723
-1123 -158 -54 -252 -64 -629 -64 l-333 0 0 1646 0 1646 298 -5 c255 -4 309
-8 385 -25z"/>
<path d="M19023 8596 c-50 -6 -94 -14 -96 -16 -3 -3 -13 -34 -22 -70 -32 -124
-69 -163 -169 -176 l-46 -7 0 -43 0 -44 71 0 c62 0 70 -2 65 -17 -19 -65 -118
-560 -123 -613 -5 -61 -4 -68 22 -98 80 -96 261 -106 461 -25 64 25 64 25 64
65 l0 40 -37 -7 c-122 -25 -180 -21 -222 18 -21 20 -23 28 -18 87 3 36 29 171
56 300 28 129 51 238 51 242 0 5 67 8 149 8 166 0 152 -6 166 73 l6 37 -146 0
c-81 0 -145 4 -145 9 0 5 11 61 25 125 14 64 25 118 25 121 0 7 -26 5 -137 -9z"/>
<path d="M12472 8360 c-97 -26 -163 -63 -238 -133 -76 -71 -118 -134 -152
-229 -21 -60 -25 -92 -26 -183 -1 -101 1 -115 27 -171 36 -77 104 -145 182
-180 120 -55 305 -40 462 37 109 54 133 77 133 129 0 48 -9 50 -79 14 -83 -41
-150 -57 -241 -58 -143 -1 -206 56 -226 202 -13 97 -12 97 123 97 129 1 196
13 288 55 80 36 118 70 149 132 44 87 34 180 -26 235 -71 67 -239 91 -376 53z
m156 -115 c45 -53 19 -176 -50 -228 -40 -31 -101 -46 -186 -47 l-62 0 6 28
c39 161 148 291 234 278 20 -3 44 -16 58 -31z"/>
<path d="M13980 8369 c-25 -5 -81 -27 -126 -49 -196 -96 -315 -308 -301 -538
6 -107 45 -190 118 -256 123 -110 330 -125 499 -35 94 50 121 78 130 132 6 42
5 47 -12 47 -10 0 -35 -10 -56 -23 -122 -76 -255 -85 -330 -22 -41 34 -73 115
-79 200 -10 133 33 303 94 375 36 41 38 42 88 38 52 -4 177 -56 235 -98 46
-33 67 -27 80 23 6 23 15 58 21 77 15 58 11 68 -31 90 -86 44 -222 60 -330 39z"/>
<path d="M14800 8364 c-178 -47 -315 -182 -377 -369 -35 -109 -37 -253 -4
-337 102 -262 494 -308 721 -85 127 126 189 284 178 461 -6 93 -30 156 -82
220 -84 103 -278 152 -436 110z m180 -113 c51 -35 65 -83 64 -226 0 -146 -23
-253 -74 -355 -78 -155 -216 -183 -280 -55 -23 45 -25 61 -24 165 3 337 162
576 314 471z"/>
<path d="M16053 8365 c-52 -16 -128 -64 -168 -105 -16 -16 -32 -30 -35 -30 -4
0 -1 30 6 67 7 38 11 69 10 70 -3 3 -376 -56 -393 -62 -7 -2 -13 -15 -13 -28
0 -20 11 -29 60 -50 54 -24 60 -29 60 -56 0 -16 -34 -180 -75 -364 -41 -185
-75 -340 -75 -346 0 -7 48 -11 140 -11 l140 0 0 71 c0 89 113 614 138 643 51
57 179 75 229 32 25 -22 28 -30 27 -88 -1 -50 -79 -431 -129 -630 l-7 -28 139
0 140 0 6 83 c7 94 112 591 133 623 20 33 93 64 151 64 66 0 80 -6 98 -41 24
-45 18 -99 -32 -313 -69 -299 -64 -352 37 -403 69 -35 226 -24 333 23 33 15
37 21 37 56 0 43 -3 44 -71 22 -60 -20 -101 -8 -119 36 -14 33 0 117 57 350
67 277 39 383 -111 421 -109 27 -230 -10 -330 -102 -30 -27 -56 -49 -59 -49
-2 0 -7 13 -10 29 -4 16 -20 45 -38 65 -52 60 -176 83 -276 51z"/>
<path d="M17492 8360 c-97 -26 -163 -63 -238 -133 -76 -71 -118 -134 -152
-229 -21 -60 -25 -92 -26 -183 -1 -101 1 -115 27 -171 36 -77 104 -145 182
-180 120 -55 305 -40 462 37 109 54 133 77 133 129 0 48 -9 50 -79 14 -83 -41
-150 -57 -241 -58 -143 -1 -206 56 -226 202 -13 97 -12 97 123 97 129 1 196
13 288 55 80 36 118 70 149 132 44 87 34 180 -26 235 -71 67 -239 91 -376 53z
m156 -115 c45 -53 19 -176 -50 -228 -40 -31 -101 -46 -186 -47 l-62 0 6 28
c39 161 148 291 234 278 20 -3 44 -16 58 -31z"/>
<path d="M19790 8364 c-178 -47 -315 -182 -377 -369 -35 -109 -37 -253 -4
-337 102 -262 494 -308 721 -85 127 126 189 284 178 461 -6 93 -30 156 -82
220 -84 103 -278 152 -436 110z m180 -113 c51 -35 65 -83 64 -226 0 -146 -23
-253 -74 -355 -78 -155 -216 -183 -280 -55 -23 45 -25 61 -24 165 3 337 162
576 314 471z"/>
<path d="M10430 6280 c0 -5 11 -10 25 -10 14 0 25 5 25 10 0 6 -11 10 -25 10
-14 0 -25 -4 -25 -10z"/>
<path d="M21162 5752 c-200 -72 -255 -301 -107 -445 64 -63 117 -82 220 -82
78 0 97 4 141 27 166 87 215 285 102 413 -80 90 -238 129 -356 87z"/>
<path d="M10350 5491 l0 -59 126 -42 c69 -23 137 -52 152 -65 l27 -23 0 -932
0 -932 -27 -23 c-15 -13 -83 -42 -152 -65 l-126 -42 0 -59 0 -59 614 0 c667 0
748 5 936 55 443 120 729 441 796 897 20 136 14 412 -11 523 -92 414 -330 677
-728 810 -204 68 -210 68 -944 72 l-663 4 0 -60z m1265 -194 c350 -115 545
-468 545 -987 0 -427 -125 -712 -364 -831 -111 -55 -196 -68 -433 -69 l-193 0
0 961 0 961 183 -4 c161 -5 191 -8 262 -31z"/>
<path d="M19710 5358 c-102 -16 -188 -35 -192 -41 -4 -7 -8 -43 -8 -82 -1
-118 -16 -213 -42 -263 -30 -59 -101 -104 -204 -128 l-74 -18 0 -78 0 -78 140
0 140 0 0 -612 0 -613 24 -50 c63 -135 228 -219 456 -232 163 -9 345 34 523
123 l67 34 0 66 0 66 -42 -5 c-24 -2 -87 -10 -141 -18 -77 -10 -109 -11 -155
-1 -80 16 -179 69 -216 115 l-31 39 -3 544 -2 544 280 0 c154 0 280 1 280 3 0
1 9 49 20 107 11 58 20 106 20 107 0 2 -135 3 -300 3 l-300 0 0 250 0 250 -27
-1 c-16 -1 -111 -15 -213 -31z"/>
<path d="M13820 4943 c-369 -55 -630 -294 -727 -662 -22 -82 -25 -118 -26
-246 0 -105 6 -174 18 -230 84 -393 368 -628 785 -652 246 -14 480 57 728 220
l92 61 0 83 c0 82 0 83 -25 83 -14 0 -62 -20 -108 -44 -161 -87 -340 -124
-511 -106 -303 31 -449 198 -481 548 l-6 72 564 0 564 0 6 108 c12 210 -27
352 -136 498 -100 133 -280 234 -467 264 -62 9 -217 12 -270 3z m193 -206
c111 -47 171 -171 184 -384 l6 -103 -318 0 -317 0 7 68 c30 278 150 432 338
432 37 0 82 -6 100 -13z"/>
<path d="M17865 4940 c-95 -15 -247 -68 -329 -116 -198 -116 -336 -316 -388
-559 -26 -123 -26 -336 1 -460 84 -401 373 -640 801 -662 268 -13 508 63 683
218 108 94 205 257 248 414 30 113 38 354 15 479 -54 287 -202 491 -440 606
-118 57 -224 80 -391 85 -77 2 -167 0 -200 -5z m270 -217 c60 -31 132 -114
170 -196 68 -148 90 -301 82 -572 -8 -264 -37 -381 -125 -498 -66 -86 -119
-112 -232 -112 -76 0 -91 3 -139 30 -160 89 -241 327 -241 710 0 155 10 247
35 350 36 144 130 270 223 300 64 20 175 14 227 -12z"/>
<path d="M22855 4940 c-95 -15 -247 -68 -329 -116 -198 -116 -336 -316 -388
-559 -26 -123 -26 -336 1 -460 84 -401 373 -640 801 -662 268 -13 508 63 683
218 108 94 205 257 248 414 30 113 38 354 15 479 -54 287 -202 491 -440 606
-118 57 -224 80 -391 85 -77 2 -167 0 -200 -5z m270 -217 c60 -31 132 -114
170 -196 68 -148 90 -301 82 -572 -8 -264 -37 -381 -125 -498 -66 -86 -119
-112 -232 -112 -76 0 -91 3 -139 30 -160 89 -241 327 -241 710 0 155 10 247
35 350 36 144 130 270 223 300 64 20 175 14 227 -12z"/>
<path d="M25378 4925 c-127 -25 -275 -120 -358 -228 -19 -26 -38 -46 -42 -47
-5 0 -8 63 -8 141 l0 141 -27 -6 c-16 -3 -165 -28 -333 -56 -168 -28 -317 -53
-332 -56 -26 -5 -28 -9 -28 -55 0 -56 -13 -46 145 -111 124 -51 115 -2 115
-644 0 -349 -4 -552 -10 -571 -13 -36 -53 -59 -167 -98 l-83 -28 0 -59 0 -58
475 0 475 0 0 59 0 58 -81 37 c-45 21 -92 48 -105 61 l-24 24 0 540 0 539 50
45 c59 53 114 74 220 83 90 8 186 -13 236 -51 42 -32 81 -113 94 -195 5 -37
10 -255 10 -511 0 -425 -1 -448 -19 -470 -11 -13 -61 -42 -113 -64 l-93 -40
-3 -58 -3 -57 476 0 475 0 0 58 0 59 -94 37 c-52 20 -102 46 -112 57 -18 20
-19 53 -25 553 -7 590 -7 598 -76 728 -42 81 -124 161 -203 200 -112 54 -288
71 -432 43z"/>
<path d="M21350 4885 c-85 -12 -248 -34 -362 -50 l-208 -28 0 -52 0 -52 109
-42 c61 -23 121 -54 135 -68 l26 -26 0 -567 c0 -528 -1 -569 -18 -590 -11 -13
-63 -37 -137 -63 l-120 -42 -3 -57 -3 -58 516 0 515 0 0 59 0 58 -107 38 c-60
20 -118 47 -130 58 l-23 20 0 744 c0 701 -1 743 -17 742 -10 -1 -88 -11 -173
-24z"/>
<path d="M14920 4842 l0 -58 99 -45 c88 -41 101 -51 123 -90 14 -24 162 -365
329 -756 l303 -713 126 0 125 0 98 198 c54 108 196 432 316 720 121 287 226
532 234 545 8 12 60 49 116 82 l101 60 0 57 0 58 -345 0 -345 0 0 -59 0 -58
115 -48 c63 -26 115 -50 115 -54 0 -19 -376 -990 -384 -988 -4 2 -30 61 -56
132 -26 72 -118 298 -204 504 -86 205 -156 376 -156 380 0 3 54 21 120 40
l120 33 0 59 0 59 -475 0 -475 0 0 -58z"/>
</g>
</svg>
